<svg id="Data_Ilustration_1_" data-name="Data Ilustration (1)" xmlns="http://www.w3.org/2000/svg" width="173" height="142" viewBox="0 0 173 142">
  <circle id="Ellipse_254" data-name="Ellipse 254" cx="66" cy="66" r="66" transform="translate(23 10)" fill="#f0f5ff"/>
  <circle id="Ellipse_255" data-name="Ellipse 255" cx="50" cy="50" r="50" transform="translate(39 26)" fill="#e0ebff"/>
  <path id="Path_27536" data-name="Path 27536" d="M99,101.8a4.36,4.36,0,0,1-2.4-.725l-10.65-7.1H81.224a1.884,1.884,0,0,1-1.475-.725,1.907,1.907,0,0,1-.325-1.625,7.5,7.5,0,0,0,.225-1.85,8.106,8.106,0,0,0-2.1-5.425A8.11,8.11,0,0,0,65.7,84.1a1.832,1.832,0,0,1-1.85.5,1.925,1.925,0,0,1-1.325-1.4,16.241,16.241,0,0,1-.375-3.6v-15c0-8.6,5.775-14.375,14.375-14.375h25c8.6,0,14.375,5.775,14.375,14.375v15a14.315,14.315,0,0,1-4,10.4,13.8,13.8,0,0,1-8.5,3.875v3.55a4.414,4.414,0,0,1-2.325,3.875A4.776,4.776,0,0,1,99,101.8ZM83.374,90.2H86.5a1.8,1.8,0,0,1,1.05.325L98.674,97.95a.567.567,0,0,0,.625.025.633.633,0,0,0,.35-.575V92.075a1.888,1.888,0,0,1,1.875-1.875,9.944,9.944,0,0,0,10.625-10.625v-15c0-6.45-4.175-10.625-10.625-10.625h-25c-6.45,0-10.625,4.175-10.625,10.625v14.7a11.893,11.893,0,0,1,14.45,2.55A11.9,11.9,0,0,1,83.4,89.75,2.717,2.717,0,0,0,83.374,90.2Z" fill="#2196f3"/>
  <path id="Path_27537" data-name="Path 27537" d="M71.5,101.625a11.751,11.751,0,0,1-7.925-3.075,10.7,10.7,0,0,1-2.25-2.7,11.86,11.86,0,0,1,19-14.025,11.9,11.9,0,0,1,3.05,7.925A10.5,10.5,0,0,1,83,92.55a10.656,10.656,0,0,1-1.375,3.325A11.762,11.762,0,0,1,71.5,101.625Zm0-20a8.107,8.107,0,0,0-8.125,8.125,7.922,7.922,0,0,0,1.175,4.175,7.262,7.262,0,0,0,1.525,1.85,8.063,8.063,0,0,0,12.375-1.8,6.929,6.929,0,0,0,.925-2.275,7.27,7.27,0,0,0,.25-1.925,8.106,8.106,0,0,0-2.1-5.425A7.9,7.9,0,0,0,71.5,81.625Z" fill="#091a7a"/>
  <path id="Path_27538" data-name="Path 27538" d="M74.175,94.225a1.854,1.854,0,0,1-1.325-.55L67.575,88.4a1.874,1.874,0,0,1,2.65-2.65L75.5,91.025a1.886,1.886,0,0,1,0,2.65A1.854,1.854,0,0,1,74.175,94.225Z" fill="#2196f3"/>
  <path id="Path_27539" data-name="Path 27539" d="M68.825,94.3a1.854,1.854,0,0,1-1.325-.55,1.886,1.886,0,0,1,0-2.65l5.275-5.275a1.874,1.874,0,0,1,2.65,2.65L70.15,93.75A1.854,1.854,0,0,1,68.825,94.3Z" fill="#292d32"/>
  <path id="Path_27540" data-name="Path 27540" d="M97.75,74.125H80.25a1.875,1.875,0,0,1,0-3.75h17.5a1.875,1.875,0,0,1,0,3.75Z" fill="#292d32"/>
  <circle id="Ellipse_256" data-name="Ellipse 256" cx="9" cy="9" r="9" transform="translate(155 105)" fill="#d6e4ff"/>
  <circle id="Ellipse_257" data-name="Ellipse 257" cx="7" cy="7" r="7" transform="translate(0 63)" fill="#d6e4ff"/>
  <circle id="Ellipse_258" data-name="Ellipse 258" cx="5" cy="5" r="5" transform="translate(136)" fill="#d6e4ff"/>
</svg>
