<svg id="Saved_Ilustration" data-name="Saved Ilustration" xmlns="http://www.w3.org/2000/svg" width="173" height="142" viewBox="0 0 173 142">
  <circle id="Ellipse_264" data-name="Ellipse 264" cx="66" cy="66" r="66" transform="translate(23 10)" fill="#f0f5ff"/>
  <circle id="Ellipse_265" data-name="Ellipse 265" cx="50" cy="50" r="50" transform="translate(39 26)" fill="#e0ebff"/>
  <path id="Path_27545" data-name="Path 27545" d="M97.275,83.55a8.823,8.823,0,0,1-4.6-1.45l-3.3-2a.975.975,0,0,0-.75,0l-3.3,2c-2.7,1.65-5.35,1.9-7.475.7-2.075-1.175-3.225-3.525-3.225-6.6V58.575c0-6.1,3.325-9.45,9.375-9.45H94c6.05,0,9.375,3.35,9.375,9.45V76.2c0,3.1-1.15,5.45-3.225,6.6A5.739,5.739,0,0,1,97.275,83.55ZM89,76.275a4.6,4.6,0,0,1,2.325.6l3.3,2c1.475.9,2.825,1.125,3.675.65.825-.475,1.3-1.7,1.3-3.35v-17.6c0-4-1.675-5.7-5.625-5.7h-10c-3.95,0-5.625,1.7-5.625,5.7V76.2c0,1.65.475,2.875,1.3,3.35.85.475,2.2.25,3.675-.65l3.3-2A4.688,4.688,0,0,1,89,76.275Z" fill="#2196f3"/>
  <path id="Path_27546" data-name="Path 27546" d="M96.5,102.875h-15c-13.575,0-19.375-5.85-19.375-19.55V75.75c0-11.65,4.2-17.55,13.6-19.125a1.874,1.874,0,1,1,.6,3.7C68.8,61.575,65.85,65.9,65.85,75.75v7.575c0,11.525,4.225,15.8,15.625,15.8h15c11.4,0,15.625-4.275,15.625-15.8V75.75c0-10-3.05-14.325-10.9-15.5a1.87,1.87,0,0,1,.55-3.7c9.75,1.45,14.1,7.35,14.1,19.2v7.575C115.875,97.025,110.075,102.875,96.5,102.875Z" fill="#091a7a"/>
  <circle id="Ellipse_266" data-name="Ellipse 266" cx="9" cy="9" r="9" transform="translate(155 105)" fill="#d6e4ff"/>
  <circle id="Ellipse_267" data-name="Ellipse 267" cx="7" cy="7" r="7" transform="translate(0 63)" fill="#d6e4ff"/>
  <circle id="Ellipse_268" data-name="Ellipse 268" cx="5" cy="5" r="5" transform="translate(136)" fill="#d6e4ff"/>
</svg>
