<svg id="Search_Ilustration" data-name="Search Ilustration" xmlns="http://www.w3.org/2000/svg" width="173" height="142" viewBox="0 0 173 142">
  <circle id="Ellipse_269" data-name="Ellipse 269" cx="66" cy="66" r="66" transform="translate(23 10)" fill="#f0f5ff"/>
  <circle id="Ellipse_270" data-name="Ellipse 270" cx="50" cy="50" r="50" transform="translate(39 26)" fill="#e0ebff"/>
  <path id="Path_27547" data-name="Path 27547" d="M86.5,97.875A24.375,24.375,0,1,1,110.875,73.5,24.39,24.39,0,0,1,86.5,97.875Zm0-45A20.625,20.625,0,1,0,107.125,73.5,20.645,20.645,0,0,0,86.5,52.875Z" fill="#2196f3"/>
  <path id="Path_27548" data-name="Path 27548" d="M92.75,75.375H80.25a1.875,1.875,0,0,1,0-3.75h12.5a1.875,1.875,0,0,1,0,3.75Z" fill="#091a7a"/>
  <path id="Path_27549" data-name="Path 27549" d="M109.4,102.975a4.1,4.1,0,0,1-.575-.05c-1.175-.15-3.3-.95-4.5-4.525a5.39,5.39,0,0,1,5.35-7.4c2.55,0,4.55.975,5.45,2.7s.65,3.925-.775,6.05C112.575,102.425,110.65,102.975,109.4,102.975Zm-1.5-5.75c.425,1.3,1.025,1.95,1.425,2s1.15-.425,1.925-1.55c.725-1.075.775-1.85.6-2.2s-.875-.725-2.175-.725a1.682,1.682,0,0,0-1.775,2.475Z" fill="#2196f3"/>
  <circle id="Ellipse_271" data-name="Ellipse 271" cx="9" cy="9" r="9" transform="translate(155 105)" fill="#d6e4ff"/>
  <circle id="Ellipse_272" data-name="Ellipse 272" cx="7" cy="7" r="7" transform="translate(0 63)" fill="#d6e4ff"/>
  <circle id="Ellipse_273" data-name="Ellipse 273" cx="5" cy="5" r="5" transform="translate(136)" fill="#d6e4ff"/>
</svg>
