<svg xmlns="http://www.w3.org/2000/svg" width="56" height="56" viewBox="0 0 56 56">
  <g id="document-upload" transform="translate(-0.5)">
    <rect id="Rectangle_2855" data-name="Rectangle 2855" width="56" height="56" rx="28" transform="translate(0.5)" fill="#d6e4ff"/>
    <path id="Path_27550" data-name="Path 27550" d="M39.833,25.587H35.98a5.742,5.742,0,0,1-5.733-5.733V16a1.337,1.337,0,0,0-1.333-1.333H23.26c-4.107,0-7.427,2.667-7.427,7.427V33.907c0,4.76,3.32,7.427,7.427,7.427H33.74c4.107,0,7.427-2.667,7.427-7.427V26.92A1.337,1.337,0,0,0,39.833,25.587ZM27.874,30.04a1,1,0,0,1-1.413,0l-.96-.96v5.587a1,1,0,0,1-2,0V29.08l-.96.96a1,1,0,1,1-1.413-1.413l2.667-2.667a1.427,1.427,0,0,1,.293-.2c.027-.013.067-.027.093-.04a1.419,1.419,0,0,1,.253-.053h.107a.917.917,0,0,1,.32.067h.027a.883.883,0,0,1,.293.2c.013.013.027.013.027.027l2.667,2.667A1.006,1.006,0,0,1,27.874,30.04Z" fill="#2196f3"/>
    <path id="Path_27551" data-name="Path 27551" d="M35.74,23.747c1.267.013,3.027.013,4.533.013a.841.841,0,0,0,.627-1.427c-1.92-1.933-5.36-5.413-7.333-7.387a.871.871,0,0,0-1.493.587v4.653A3.635,3.635,0,0,0,35.74,23.747Z" fill="#2196f3"/>
  </g>
</svg>
